<?xml version="1.0" encoding="UTF-8"?> <svg xmlns="http://www.w3.org/2000/svg" width="2500" height="2500" viewBox="0 0 2500 2500" fill="none"><g clip-path="url(#clip0_324_88)"><path d="M2187.5 0H312.5C140.156 0 0 140.156 0 312.5V2187.5C0 2359.84 140.156 2500 312.5 2500H2187.5C2359.84 2500 2500 2359.84 2500 2187.5V312.5C2500 140.156 2359.84 0 2187.5 0Z" fill="#1976D2"></path><path d="M2109.38 1250H1718.75V937.5C1718.75 851.25 1788.75 859.375 1875 859.375H2031.25V468.75H1718.75C1459.84 468.75 1250 678.594 1250 937.5V1250H937.5V1640.62H1250V2500H1718.75V1640.62H1953.12L2109.38 1250Z" fill="#FAFAFA"></path></g><defs><clipPath id="clip0_324_88"><rect width="2500" height="2500" fill="white"></rect></clipPath></defs></svg> 