<?xml version="1.0" encoding="UTF-8" standalone="no"?>
<svg
   width="533.47925"
   height="533.33398"
   viewBox="0 0 533.47925 533.33398"
   fill="none"
   version="1.1"
   id="svg9"
   sodipodi:docname="insta.svg"
   inkscape:export-filename="insta.svg"
   inkscape:export-xdpi="96"
   inkscape:export-ydpi="96"
   xmlns:inkscape="http://www.inkscape.org/namespaces/inkscape"
   xmlns:sodipodi="http://sodipodi.sourceforge.net/DTD/sodipodi-0.dtd"
   xmlns="http://www.w3.org/2000/svg"
   xmlns:svg="http://www.w3.org/2000/svg">
  <sodipodi:namedview
     id="namedview9"
     pagecolor="#ffffff"
     bordercolor="#000000"
     borderopacity="0.25"
     inkscape:showpageshadow="2"
     inkscape:pageopacity="0.0"
     inkscape:pagecheckerboard="0"
     inkscape:deskcolor="#d1d1d1">
    <inkscape:page
       x="0"
       y="0"
       width="533.47925"
       height="533.33398"
       id="page2"
       margin="0"
       bleed="0" />
  </sodipodi:namedview>
  <path
     d="m 266.82623,6.3525433e-6 c -111.361,0 -143.93,0.1150000074567 -150.261,0.6400000074567 C 93.712235,2.5400063 79.491235,6.1380063 63.999235,13.852006 c -11.94,5.928 -21.356,12.801 -30.649,22.434 -16.924,17.569 -27.1819994,39.183 -30.8949994,64.876004 -1.805,12.472 -2.33,15.016 -2.437,78.726 -0.041,21.237 0,49.186 0,86.674 0,111.271 0.123,143.807 0.656,150.126 1.847,22.238 5.334,36.229 12.7189994,51.532 14.115,29.295 41.071,51.287 72.827,59.493 10.996,2.831 23.140995,4.39 38.731995,5.128 6.605,0.287 73.934,0.493 141.304,0.493 67.37,0 134.74,-0.082 141.181,-0.411 18.053,-0.849 28.536,-2.256 40.127,-5.251 15.746,-4.038 30.421,-11.465 42.999,-21.762 12.579,-10.297 22.758,-23.215 29.827,-37.854 7.242,-14.934 10.914,-29.459 12.576,-50.535 0.361,-4.596 0.513,-77.861 0.513,-151.028 0,-73.18 -0.165,-146.31 -0.526,-150.906 -1.682,-21.417004 -5.354,-35.818004 -12.829,-51.040004 -6.134,-12.46 -12.945,-21.766 -22.833,-31.28 -17.643,-16.855 -39.224,-27.1119997 -64.945,-30.8209997 -12.461,-1.80199994 -14.943,-2.33499994 -78.702,-2.4459999474564 z"
     fill="url(#paint0_radial_101_156)"
     id="path1"
     style="fill:url(#paint0_radial_101_156)" />
  <path
     d="m 266.82623,6.3525433e-6 c -111.361,0 -143.93,0.1150000074567 -150.261,0.6400000074567 C 93.712235,2.5400063 79.491235,6.1380063 63.999235,13.852006 c -11.94,5.928 -21.356,12.801 -30.649,22.434 -16.924,17.569 -27.1819994,39.183 -30.8949994,64.876004 -1.805,12.472 -2.33,15.016 -2.437,78.726 -0.041,21.237 0,49.186 0,86.674 0,111.271 0.123,143.807 0.656,150.126 1.847,22.238 5.334,36.229 12.7189994,51.532 14.115,29.295 41.071,51.287 72.827,59.493 10.996,2.831 23.140995,4.39 38.731995,5.128 6.605,0.287 73.934,0.493 141.304,0.493 67.37,0 134.74,-0.082 141.181,-0.411 18.053,-0.849 28.536,-2.256 40.127,-5.251 15.746,-4.038 30.421,-11.465 42.999,-21.762 12.579,-10.297 22.758,-23.215 29.827,-37.854 7.242,-14.934 10.914,-29.459 12.576,-50.535 0.361,-4.596 0.513,-77.861 0.513,-151.028 0,-73.18 -0.165,-146.31 -0.526,-150.906 -1.682,-21.417004 -5.354,-35.818004 -12.829,-51.040004 -6.134,-12.46 -12.945,-21.766 -22.833,-31.28 -17.643,-16.855 -39.224,-27.1119997 -64.945,-30.8209997 -12.461,-1.80199994 -14.943,-2.33499994 -78.702,-2.4459999474564 z"
     fill="url(#paint1_radial_101_156)"
     id="path2"
     style="fill:url(#paint1_radial_101_156)" />
  <path
     d="m 266.70323,69.750006 c -53.486,0 -60.198,0.234 -81.205,1.19 -20.966,0.96 -35.277,4.279 -47.799,9.149 -12.953,5.03 -23.94,11.759 -34.887,22.710004 -10.954995,10.946 -17.682995,21.934 -22.729995,34.883 -4.882,12.526 -8.206,26.841 -9.149,47.799 -0.936,21.006 -1.182,27.723 -1.182,81.209 0,53.485 0.238,60.177 1.19,81.184 0.964,20.966 4.283,35.277 9.149,47.799 5.035,12.953 11.763,23.94 22.713995,34.887 10.943,10.955 21.93,17.7 34.875,22.73 12.53,4.87 26.845,8.189 47.807,9.149 21.007,0.956 27.715,1.19 81.197,1.19 53.489,0 60.181,-0.234 81.188,-1.19 20.966,-0.96 35.293,-4.279 47.823,-9.149 12.949,-5.03 23.92,-11.775 34.863,-22.73 10.955,-10.947 17.683,-21.934 22.73,-34.883 4.841,-12.526 8.165,-26.841 9.15,-47.799 0.943,-21.007 1.189,-27.703 1.189,-81.188 0,-53.486 -0.246,-60.198 -1.189,-81.205 -0.985,-20.966 -4.309,-35.277 -9.15,-47.799 -5.047,-12.953 -11.775,-23.941 -22.73,-34.887 -10.955,-10.955004 -21.91,-17.684004 -34.875,-22.710004 -12.555,-4.87 -26.874,-8.189 -47.84,-9.149 -21.007,-0.956 -27.694,-1.19 -81.196,-1.19 z m -17.667,35.490004 c 5.243,-0.008 11.094,0 17.667,0 52.583,0 58.815,0.189 79.58,1.132 19.202,0.878 29.623,4.087 36.565,6.782 9.191,3.57 15.743,7.837 22.632,14.73 6.893,6.893 11.16,13.457 14.738,22.648 2.695,6.934 5.908,17.355 6.782,36.557 0.943,20.761 1.149,26.997 1.149,79.555 0,52.559 -0.206,58.795 -1.149,79.556 -0.878,19.201 -4.087,29.623 -6.782,36.557 -3.57,9.19 -7.845,15.734 -14.738,22.623 -6.893,6.893 -13.437,11.16 -22.632,14.73 -6.934,2.708 -17.363,5.908 -36.565,6.786 -20.761,0.944 -26.997,1.149 -79.58,1.149 -52.587,0 -58.819,-0.205 -79.58,-1.149 -19.202,-0.886 -29.623,-4.095 -36.569,-6.79 -9.191,-3.57 -15.755,-7.837 -22.648,-14.73 -6.893,-6.893 -11.16,-13.441 -14.738,-22.636 -2.696,-6.934 -5.908,-17.355 -6.782,-36.557 -0.944,-20.76 -1.133,-26.997 -1.133,-79.588 0,-52.591 0.189,-58.795 1.133,-79.555 0.878,-19.202 4.086,-29.623 6.782,-36.565 3.57,-9.191 7.845,-15.756 14.738,-22.649 6.893,-6.892 13.457,-11.159 22.648,-14.737 6.942,-2.708 17.367,-5.908 36.569,-6.79 18.168,-0.821 25.208,-1.067 61.913,-1.108 z m 122.792,32.7 c -4.675,0 -9.244,1.386 -13.131,3.984 -3.886,2.597 -6.915,6.288 -8.704,10.607 -1.788,4.319 -2.256,9.071 -1.343,13.655 0.912,4.585 3.164,8.796 6.47,12.101 3.306,3.304 7.517,5.555 12.102,6.466 4.585,0.911 9.337,0.441 13.655,-1.349 4.319,-1.79 8.009,-4.82 10.605,-8.707 2.596,-3.888 3.98,-8.458 3.979,-13.132 0,-13.048 -10.586,-23.633 -23.633,-23.633 z m -105.125,27.613 c -55.853,0 -101.137,45.284 -101.137,101.137 0,55.852 45.284,101.116 101.137,101.116 55.853,0 101.125,-45.264 101.125,-101.116 0,-55.853 -45.272,-101.137 -101.125,-101.137 z m 0,35.49 c 36.253,0 65.647,29.389 65.647,65.647 0,36.253 -29.394,65.646 -65.647,65.646 -36.257,0 -65.647,-29.393 -65.647,-65.646 0,-36.258 29.39,-65.647 65.647,-65.647 z"
     fill="#ffffff"
     id="path3" />
  <defs
     id="defs9">
    <radialGradient
       id="paint0_radial_101_156"
       cx="0"
       cy="0"
       r="1"
       gradientUnits="userSpaceOnUse"
       gradientTransform="matrix(0,-528.573,491.748,0,141.70623,574.41101)">
      <stop
         stop-color="#FFDD55"
         id="stop3" />
      <stop
         offset="0.1"
         stop-color="#FFDD55"
         id="stop4" />
      <stop
         offset="0.5"
         stop-color="#FF543E"
         id="stop5" />
      <stop
         offset="1"
         stop-color="#C837AB"
         id="stop6" />
    </radialGradient>
    <radialGradient
       id="paint1_radial_101_156"
       cx="0"
       cy="0"
       r="1"
       gradientUnits="userSpaceOnUse"
       gradientTransform="matrix(46.388146,231.67857,-955.22833,191.26185,-89.360765,38.421006)">
      <stop
         stop-color="#3771C8"
         id="stop7" />
      <stop
         offset="0.128"
         stop-color="#3771C8"
         id="stop8" />
      <stop
         offset="1"
         stop-color="#6600FF"
         stop-opacity="0"
         id="stop9" />
    </radialGradient>
  </defs>
</svg>
