<?xml version="1.0" encoding="UTF-8"?> <svg xmlns="http://www.w3.org/2000/svg" width="2508" height="2508" viewBox="0 0 2508 2508" fill="none"><g clip-path="url(#clip0_310_50)" filter="url(#filter0_d_310_50)"><path d="M2163.09 0H344.909C156.63 0 4 152.63 4 340.909V2159.09C4 2347.37 156.63 2500 344.909 2500H2163.09C2351.37 2500 2504 2347.37 2504 2159.09V340.909C2504 152.63 2351.37 0 2163.09 0Z" fill="#0077B5"></path><path d="M904.566 681.818C904.566 723.959 892.07 765.154 868.658 800.193C845.245 835.231 811.969 862.541 773.036 878.668C734.103 894.794 691.262 899.014 649.93 890.792C608.599 882.571 570.634 862.278 540.836 832.48C511.038 802.682 490.745 764.717 482.524 723.386C474.303 682.055 478.522 639.214 494.649 600.281C510.775 561.347 538.085 528.071 573.124 504.658C608.163 481.246 649.357 468.75 691.498 468.75C748.007 468.75 802.202 491.198 842.16 531.156C882.118 571.114 904.566 625.309 904.566 681.818Z" fill="white"></path><path d="M856.27 1036.93V1978.27C856.308 1985.21 854.972 1992.09 852.34 1998.52C849.709 2004.95 845.833 2010.79 840.936 2015.71C836.039 2020.64 830.216 2024.55 823.804 2027.21C817.392 2029.88 810.516 2031.25 803.571 2031.25H578.997C572.053 2031.27 565.173 2029.91 558.754 2027.27C552.334 2024.62 546.502 2020.73 541.591 2015.81C536.681 2010.9 532.789 2005.07 530.141 1998.65C527.492 1992.23 526.138 1985.35 526.156 1978.41V1036.93C526.156 1022.92 531.724 1009.48 541.633 999.568C551.543 989.658 564.983 984.091 578.997 984.091H803.571C817.561 984.128 830.965 989.712 840.844 999.618C850.723 1009.52 856.27 1022.94 856.27 1036.93Z" fill="white"></path><path d="M2030.13 1526.99V1982.67C2030.15 1989.06 2028.91 1995.38 2026.47 2001.28C2024.04 2007.19 2020.46 2012.55 2015.95 2017.06C2011.43 2021.58 2006.07 2025.16 2000.17 2027.59C1994.27 2030.02 1987.94 2031.27 1981.55 2031.25H1740.08C1733.69 2031.27 1727.37 2030.02 1721.46 2027.59C1715.56 2025.16 1710.2 2021.58 1705.68 2017.06C1701.17 2012.55 1697.59 2007.19 1695.16 2001.28C1692.72 1995.38 1691.48 1989.06 1691.5 1982.67V1541.05C1691.5 1475.14 1710.82 1252.41 1519.2 1252.41C1370.76 1252.41 1340.5 1404.83 1334.54 1473.3V1982.67C1334.54 1995.43 1329.52 2007.68 1320.56 2016.77C1311.6 2025.86 1299.43 2031.06 1286.67 2031.25H1053.43C1047.06 2031.25 1040.75 2029.99 1034.86 2027.55C1028.97 2025.11 1023.63 2021.53 1019.13 2017.01C1014.63 2012.5 1011.06 2007.14 1008.64 2001.25C1006.21 1995.36 1004.97 1989.04 1004.99 1982.67V1032.81C1004.97 1026.44 1006.21 1020.13 1008.64 1014.23C1011.06 1008.34 1014.63 1002.98 1019.13 998.47C1023.63 993.957 1028.97 990.377 1034.86 987.933C1040.75 985.49 1047.06 984.233 1053.43 984.233H1286.67C1299.55 984.233 1311.91 989.351 1321.02 998.461C1330.13 1007.57 1335.25 1019.93 1335.25 1032.81V1114.91C1390.36 1032.24 1472.04 968.466 1646.33 968.466C2032.41 968.466 2030.13 1328.98 2030.13 1526.99Z" fill="white"></path></g><defs><filter id="filter0_d_310_50" x="0" y="0" width="2508" height="2508" filterUnits="userSpaceOnUse" color-interpolation-filters="sRGB"><feFlood flood-opacity="0" result="BackgroundImageFix"></feFlood><feColorMatrix in="SourceAlpha" type="matrix" values="0 0 0 0 0 0 0 0 0 0 0 0 0 0 0 0 0 0 127 0" result="hardAlpha"></feColorMatrix><feOffset dy="4"></feOffset><feGaussianBlur stdDeviation="2"></feGaussianBlur><feComposite in2="hardAlpha" operator="out"></feComposite><feColorMatrix type="matrix" values="0 0 0 0 0 0 0 0 0 0 0 0 0 0 0 0 0 0 0.25 0"></feColorMatrix><feBlend mode="normal" in2="BackgroundImageFix" result="effect1_dropShadow_310_50"></feBlend><feBlend mode="normal" in="SourceGraphic" in2="effect1_dropShadow_310_50" result="shape"></feBlend></filter><clipPath id="clip0_310_50"><rect width="2500" height="2500" fill="white" transform="translate(4)"></rect></clipPath></defs></svg> 