<?xml version="1.0" encoding="UTF-8" standalone="no"?>
<svg
   width="599.99872"
   height="421.39062"
   viewBox="0 0 599.99872 421.39062"
   fill="none"
   version="1.1"
   id="svg3"
   sodipodi:docname="youtube.svg"
   xmlns:inkscape="http://www.inkscape.org/namespaces/inkscape"
   xmlns:sodipodi="http://sodipodi.sourceforge.net/DTD/sodipodi-0.dtd"
   xmlns="http://www.w3.org/2000/svg"
   xmlns:svg="http://www.w3.org/2000/svg">
  <sodipodi:namedview
     id="namedview3"
     pagecolor="#ffffff"
     bordercolor="#000000"
     borderopacity="0.25"
     inkscape:showpageshadow="2"
     inkscape:pageopacity="0.0"
     inkscape:pagecheckerboard="0"
     inkscape:deskcolor="#d1d1d1">
    <inkscape:page
       x="0"
       y="0"
       width="599.99872"
       height="421.39062"
       id="page2"
       margin="0"
       bleed="0" />
  </sodipodi:namedview>
  <g
     clip-path="url(#clip0_23_9235)"
     id="g3"
     inkscape:export-filename="youtube.png"
     inkscape:export-xdpi="96"
     inkscape:export-ydpi="96"
     transform="translate(-100.00127,-189.024)">
    <path
       d="M 499.673,393.581 C 444.66,364.182 391.985,337.154 338.141,308.935 v 168.813 c 56.66,-30.802 116.382,-59.009 161.766,-84.167 z"
       fill="#ffffff"
       id="path1" />
    <path
       d="M 499.673,393.581 C 444.66,364.182 338.141,308.935 338.141,308.935 L 480.16,404.39 c 0.011,0 -25.871,14.349 19.513,-10.809 z"
       fill="#e8e0e0"
       id="path2" />
    <path
       d="m 348.493,609.892 c -114.267,-2.103 -153.294,-3.996 -177.283,-8.938 -16.23,-3.284 -30.334,-10.575 -40.676,-21.151 -7.992,-8.003 -14.348,-20.215 -19.28,-37.157 -4.23,-14.115 -5.877,-25.859 -8.226,-54.546 -3.5957,-64.742 -4.4529,-117.673 0,-176.816 3.673,-32.661 5.454,-71.432 29.855,-94.052 11.521,-10.586 24.924,-17.399 39.974,-20.215 23.51,-4.464 123.674,-7.993 227.366,-7.993 103.458,0 203.844,3.529 227.376,7.993 18.802,3.529 36.434,14.104 46.787,27.74 22.263,35.02 22.653,78.568 24.913,112.631 0.935,16.23 0.935,108.389 0,124.62 -3.518,53.833 -6.345,72.879 -14.338,92.627 -4.942,12.467 -9.161,19.046 -16.464,26.337 -11.453,11.221 -26.053,18.684 -41.855,21.395 -98.883,7.436 -182.85,9.051 -278.149,7.525 z M 499.918,393.581 C 444.905,364.182 392.23,336.92 338.386,308.701 v 168.824 c 56.66,-30.801 116.393,-59.02 161.766,-84.178 z"
       fill="#cd201f"
       id="path3" />
  </g>
  <defs
     id="defs3">
    <clipPath
       id="clip0_23_9235">
      <rect
         width="600"
         height="421.44"
         fill="#ffffff"
         transform="translate(100,189)"
         id="rect3"
         x="0"
         y="0" />
    </clipPath>
  </defs>
</svg>
